# xmcd
#
# Track frame offsets: 
#        150
#        10676
#        22732
#        35352
#        51739
#        67906
#        81814
#        93894
#        108396
#        122781
#        134032
#
# Disc length: 1942 seconds
#
# Revision: 0
# Processed by: cddbd v1.4PL0 Copyright (c) Steve Scherf et al.
# Submitted via: ExactAudioCopy v0.95a3
#
DISCID=8907940b
DTITLE=Commander Cody - Commander Cody and His Lost Planet Airmen
DYEAR=1900
DGENRE=Country
TTITLE0=Southbound
TTITLE1=Don't let go
TTITLE2=California Okie
TTITLE3=Willin'
TTITLE4=The Boogie man Boogie
TTITLE5=Hawaii Blues
TTITLE6=House of Blue Lights
TTITLE7=Keep on lovin' her
TTITLE8=Devil and Me
TTITLE9=Four or five times
TTITLE10=That's what I like about the South
EXTD=
EXTT0=
EXTT1=
EXTT2=
EXTT3=
EXTT4=
EXTT5=
EXTT6=
EXTT7=
EXTT8=
EXTT9=
EXTT10=
PLAYORDER=
